<svg fill="none" height="24" viewBox="0 0 24 24" width="24" xmlns="http://www.w3.org/2000/svg"><path clip-rule="evenodd" d="m12 23c6.0751 0 11-4.9249 11-11 0-6.07513-4.9249-11-11-11-6.07513 0-11 4.92487-11 11 0 6.0751 4.92487 11 11 11zm-.8338-6 2.3223 3.8706c2.4916-.4151 4.6366-1.8544 5.9877-3.8706zm-4.28963-3.2621 4.33253 7.221c-2.73087-.238-5.11214-1.6965-6.59521-3.827zm.75491-4.7379h-4.11212c-.33191.93827-.51253 1.948-.51253 3 0 1.0929.19493 2.1402.55192 3.1091zm12.84912 6h-4.1663l4.025-6.37286c.4217 1.04156.6539 2.18006.6539 3.37286 0 1.052-.1806 2.0617-.5126 3zm-7.6468-8h-8.31003c1.35109-2.0162 3.49614-3.45554 5.98773-3.87055zm-.0429-3.95887 4.2438 7.07297 2.191-3.46915c-1.4912-2.00885-3.8003-3.37429-6.4348-3.60382zm-4.61165 8.95887 1.87495-3h3.8916l1.875 3-1.875 3h-3.8916z" fill="#0f0f0f" fill-rule="evenodd"/></svg>